<svg xmlns="http://www.w3.org/2000/svg" style="display: none;">

    <!-- Голосовой канал -->
    <symbol id="icon-voice" viewBox="0 0 24 24" fill="none">
        <path d="M19 11a7 7 0 01-7 7m0 0a7 7 0 01-7-7m7 7v4m0 0H8m4 0h4m-4-8a3 3 0 01-3-3V5a3 3 0 116 0v6a3 3 0 01-3 3z" stroke="currentColor" stroke-width="2" stroke-linecap="round" stroke-linejoin="round"/>
    </symbol>

    <!-- Микрофон выключен -->
    <symbol id="icon-mic-off" viewBox="0 0 24 24" fill="none">
        <path d="M19 11a7 7 0 01-7 7m0 0a7 7 0 01-7-7m7 7v4m0 0H8m4 0h4m-4-8a3 3 0 01-3-3V5a3 3 0 116 0v6a3 3 0 01-3 3z" stroke="currentColor" stroke-width="2" stroke-linecap="round" stroke-linejoin="round"/>
        <path d="M3 3l18 18" stroke="currentColor" stroke-width="2" stroke-linecap="round"/>
    </symbol>

    <!-- Микрофон включен -->
    <symbol id="icon-mic" viewBox="0 0 24 24" fill="none">
        <path d="M19 11a7 7 0 01-7 7m0 0a7 7 0 01-7-7m7 7v4m0 0H8m4 0h4m-4-8a3 3 0 01-3-3V5a3 3 0 116 0v6a3 3 0 01-3 3z" stroke="currentColor" stroke-width="2" stroke-linecap="round" stroke-linejoin="round"/>
    </symbol>

    <!-- Наушники (звук включен) -->
    <symbol id="icon-headphones" viewBox="0 0 24 24" fill="none">
        <path d="M3 12h2a2 2 0 012 2v4a2 2 0 01-2 2H3v-8zm18 0h-2a2 2 0 00-2 2v4a2 2 0 002 2h2v-8z" stroke="currentColor" stroke-width="2"/>
        <path d="M12 2a10 10 0 00-10 10" stroke="currentColor" stroke-width="2"/>
        <path d="M22 12a10 10 0 00-10-10" stroke="currentColor" stroke-width="2"/>
    </symbol>

    <!-- Наушники выключены (глухота) -->
    <symbol id="icon-headphones-off" viewBox="0 0 24 24" fill="none">
        <path d="M3 12h2a2 2 0 012 2v4a2 2 0 01-2 2H3v-8zm18 0h-2a2 2 0 00-2 2v4a2 2 0 002 2h2v-8z" stroke="currentColor" stroke-width="2"/>
        <path d="M12 2a10 10 0 00-10 10" stroke="currentColor" stroke-width="2"/>
        <path d="M22 12a10 10 0 00-10-10" stroke="currentColor" stroke-width="2"/>
        <path d="M3 3l18 18" stroke="currentColor" stroke-width="2" stroke-linecap="round"/>
    </symbol>

    <!-- Текстовый канал (хеш) -->
    <symbol id="icon-hash" viewBox="0 0 24 24" fill="none">
        <path d="M7 20L10 4M14 20L17 4M4 8H20M4 16H20" stroke="currentColor" stroke-width="2" stroke-linecap="round"/>
    </symbol>

    <!-- Сервер по умолчанию -->
    <symbol id="icon-server-default" viewBox="0 0 24 24" fill="none">
        <path d="M4 7h16M4 12h16M4 17h16M7 4h10a2 2 0 012 2v12a2 2 0 01-2 2H7a2 2 0 01-2-2V6a2 2 0 012-2z" stroke="currentColor" stroke-width="2" stroke-linecap="round"/>
    </symbol>

    <!-- Сервер Game -->
    <symbol id="icon-server-game" viewBox="0 0 24 24" fill="none">
        <path d="M12 2a10 10 0 00-10 10v6a2 2 0 002 2h16a2 2 0 002-2v-6a10 10 0 00-10-10z" stroke="currentColor" stroke-width="2"/>
        <circle cx="9" cy="12" r="1" fill="currentColor"/>
        <circle cx="15" cy="12" r="1" fill="currentColor"/>
        <path d="M7 15h10" stroke="currentColor" stroke-width="2" stroke-linecap="round"/>
    </symbol>

    <!-- Сервер Dev -->
    <symbol id="icon-server-dev" viewBox="0 0 24 24" fill="none">
        <path d="M4 5h16a1 1 0 011 1v12a1 1 0 01-1 1H4a1 1 0 01-1-1V6a1 1 0 011-1z" stroke="currentColor" stroke-width="2"/>
        <path d="M8 9l4 3-4 3M16 9l-4 3 4 3" stroke="currentColor" stroke-width="2" stroke-linecap="round"/>
    </symbol>

    <!-- Сервер Music -->
    <symbol id="icon-server-music" viewBox="0 0 24 24" fill="none">
        <path d="M9 18V5l12-2v13" stroke="currentColor" stroke-width="2" stroke-linecap="round"/>
        <circle cx="6" cy="18" r="3" stroke="currentColor" stroke-width="2"/>
        <circle cx="18" cy="16" r="3" stroke="currentColor" stroke-width="2"/>
    </symbol>

    <!-- Сервер Study -->
    <symbol id="icon-server-study" viewBox="0 0 24 24" fill="none">
        <path d="M4 6h16a2 2 0 012 2v8a2 2 0 01-2 2H4a2 2 0 01-2-2V8a2 2 0 012-2z" stroke="currentColor" stroke-width="2"/>
        <path d="M4 6l8 5 8-5" stroke="currentColor" stroke-width="2" stroke-linecap="round"/>
    </symbol>

    <!-- Сервер Friends -->
    <symbol id="icon-server-friends" viewBox="0 0 24 24" fill="none">
        <path d="M17 21v-2a4 4 0 00-4-4H5a4 4 0 00-4 4v2" stroke="currentColor" stroke-width="2"/>
        <circle cx="9" cy="7" r="4" stroke="currentColor" stroke-width="2"/>
        <path d="M23 21v-2a4 4 0 00-3-3.87" stroke="currentColor" stroke-width="2"/>
        <path d="M16 3.13a4 4 0 010 7.75" stroke="currentColor" stroke-width="2"/>
    </symbol>

    <!-- Сервер Settings -->
    <symbol id="icon-server-settings" viewBox="0 0 24 24" fill="none">
        <circle cx="12" cy="12" r="3" stroke="currentColor" stroke-width="2"/>
        <path d="M19.4 15a1.65 1.65 0 00.33 1.82l.06.06a2 2 0 010 2.83 2 2 0 01-2.83 0l-.06-.06a1.65 1.65 0 00-1.82-.33 1.65 1.65 0 00-1 1.51V21a2 2 0 01-2 2 2 2 0 01-2-2v-.09A1.65 1.65 0 009 19.4a1.65 1.65 0 00-1.82.33l-.06.06a2 2 0 01-2.83 0 2 2 0 010-2.83l.06-.06a1.65 1.65 0 00.33-1.82 1.65 1.65 0 00-1.51-1H3a2 2 0 01-2-2 2 2 0 012-2h.09A1.65 1.65 0 004.6 9a1.65 1.65 0 00-.33-1.82l-.06-.06a2 2 0 010-2.83 2 2 0 012.83 0l.06.06a1.65 1.65 0 001.82.33H9a1.65 1.65 0 001-1.51V3a2 2 0 012-2 2 2 0 012 2v.09a1.65 1.65 0 001 1.51 1.65 1.65 0 001.82-.33l.06-.06a2 2 0 012.83 0 2 2 0 010 2.83l-.06.06a1.65 1.65 0 00-.33 1.82V9a1.65 1.65 0 001.51 1H21a2 2 0 012 2 2 2 0 01-2 2h-.09a1.65 1.65 0 00-1.51 1z" stroke="currentColor" stroke-width="2"/>
    </symbol>

    <!-- Плюс -->
    <symbol id="icon-plus" viewBox="0 0 24 24" fill="none">
        <path d="M12 4v16M4 12h16" stroke="currentColor" stroke-width="2" stroke-linecap="round"/>
    </symbol>

    <!-- Добавить сервер -->
    <symbol id="icon-server-add" viewBox="0 0 24 24" fill="none">
        <path d="M12 4v16M4 12h16" stroke="currentColor" stroke-width="2" stroke-linecap="round"/>
    </symbol>

    <!-- Выход -->
    <symbol id="icon-logout" viewBox="0 0 24 24" fill="none">
        <path d="M15 3h4a2 2 0 012 2v14a2 2 0 01-2 2h-4M10 17l5-5-5-5M15 12H3" stroke="currentColor" stroke-width="2"/>
    </symbol>

    <!-- Редактировать -->
    <symbol id="icon-edit" viewBox="0 0 24 24" fill="none">
        <path d="M15.232 5.232l3.536 3.536m-2.036-5.036a2.5 2.5 0 113.536 3.536L6.5 21.036H3v-3.572L16.732 3.732z" stroke="currentColor" stroke-width="2" stroke-linecap="round"/>
    </symbol>

    <!-- Стрелка влево -->
    <symbol id="icon-arrow-left" viewBox="0 0 24 24" fill="none">
        <path d="M15 18l-6-6 6-6" stroke="currentColor" stroke-width="2" stroke-linecap="round" stroke-linejoin="round"/>
    </symbol>

    <!-- Закрыть -->
    <symbol id="icon-close" viewBox="0 0 24 24" fill="none">
        <path d="M6 18L18 6M6 6l12 12" stroke="currentColor" stroke-width="2" stroke-linecap="round"/>
    </symbol>

    <!-- Иконка стрелки вправо -->
    <symbol id="icon-arrow-right" viewBox="0 0 24 24" fill="none">
        <path d="M9 18l6-6-6-6" stroke="currentColor" stroke-width="2" stroke-linecap="round" stroke-linejoin="round"/>
    </symbol>

    <!-- Сообщение / пустое состояние чата -->
    <symbol id="icon-message" viewBox="0 0 24 24" fill="none">
        <path d="M21 15a2 2 0 01-2 2H7l-4 4V5a2 2 0 012-2h14a2 2 0 012 2z" stroke="currentColor" stroke-width="2" stroke-linecap="round" stroke-linejoin="round"/>
    </symbol>

    <!-- Динамик (голосовой канал) -->
    <symbol id="icon-speaker" viewBox="0 0 24 24" fill="none">
        <polygon points="11 5 6 9 2 9 2 15 6 15 11 19 11 5" stroke="currentColor" stroke-width="2" stroke-linecap="round" stroke-linejoin="round"/>
        <path d="M19.07 4.93a10 10 0 010 14.14M15.54 8.46a5 5 0 010 7.07" stroke="currentColor" stroke-width="2" stroke-linecap="round"/>
    </symbol>

    <!-- Тред -->
    <symbol id="icon-thread" viewBox="0 0 24 24" fill="none">
        <path d="M21 15a2 2 0 01-2 2H7l-4 4V5a2 2 0 012-2h14a2 2 0 012 2z" stroke="currentColor" stroke-width="2" stroke-linecap="round" stroke-linejoin="round"/>
        <path d="M8 9h8M8 13h5" stroke="currentColor" stroke-width="2" stroke-linecap="round"/>
    </symbol>

    <!-- Булавка (закреп) -->
    <symbol id="icon-pin" viewBox="0 0 24 24" fill="none">
        <path d="M12 17v5M9 10.76V6a2 2 0 014 0v4.76a3 3 0 011 2.24V17H8v-4a3 3 0 011-2.24z" stroke="currentColor" stroke-width="2" stroke-linecap="round" stroke-linejoin="round"/>
    </symbol>

    <!-- Колокол -->
    <symbol id="icon-bell" viewBox="0 0 24 24" fill="none">
        <path d="M6 8a6 6 0 0112 0c0 7 3 9 3 9H3s3-2 3-9M13.7 21a2 2 0 01-3.4 0" stroke="currentColor" stroke-width="2" stroke-linecap="round" stroke-linejoin="round"/>
    </symbol>

    <!-- Участники -->
    <symbol id="icon-users" viewBox="0 0 24 24" fill="none">
        <path d="M16 21v-2a4 4 0 00-4-4H5a4 4 0 00-4 4v2" stroke="currentColor" stroke-width="2" stroke-linecap="round"/>
        <circle cx="8.5" cy="7" r="4" stroke="currentColor" stroke-width="2"/>
        <path d="M22 21v-2a4 4 0 00-3-3.87M16 3.13a4 4 0 010 7.75" stroke="currentColor" stroke-width="2" stroke-linecap="round"/>
    </symbol>

    <!-- Поиск -->
    <symbol id="icon-search" viewBox="0 0 24 24" fill="none">
        <circle cx="11" cy="11" r="7" stroke="currentColor" stroke-width="2"/>
        <path d="m21 21-4.3-4.3" stroke="currentColor" stroke-width="2" stroke-linecap="round"/>
    </symbol>

    <!-- Шестерня -->
    <symbol id="icon-gear" viewBox="0 0 24 24" fill="none">
        <circle cx="12" cy="12" r="3" stroke="currentColor" stroke-width="2"/>
        <path d="M19.4 15a1.7 1.7 0 00.3 1.8l.1.1a2 2 0 010 2.83 2 2 0 01-2.83 0l-.1-.1a1.7 1.7 0 00-1.8-.3 1.7 1.7 0 00-1 1.5V21a2 2 0 01-4 0v-.1a1.7 1.7 0 00-1.1-1.5 1.7 1.7 0 00-1.8.3l-.1.1a2 2 0 01-2.83 0 2 2 0 010-2.83l.1-.1a1.7 1.7 0 00.3-1.8 1.7 1.7 0 00-1.5-1H3a2 2 0 010-4h.1a1.7 1.7 0 001.5-1.1 1.7 1.7 0 00-.3-1.8l-.1-.1A2 2 0 017 4.1l.1.1a1.7 1.7 0 001.8.3H9a1.7 1.7 0 001-1.5V3a2 2 0 014 0v.1a1.7 1.7 0 001 1.5 1.7 1.7 0 001.8-.3l.1-.1a2 2 0 012.83 0 2 2 0 010 2.83l-.1.1a1.7 1.7 0 00-.3 1.8V9a1.7 1.7 0 001.5 1H21a2 2 0 010 4h-.1a1.7 1.7 0 00-1.5 1z" stroke="currentColor" stroke-width="2" stroke-linecap="round" stroke-linejoin="round"/>
    </symbol>

    <!-- Шеврон вниз -->
    <symbol id="icon-chevron-down" viewBox="0 0 24 24" fill="none">
        <path d="M6 9l6 6 6-6" stroke="currentColor" stroke-width="2.5" stroke-linecap="round" stroke-linejoin="round"/>
    </symbol>

    <!-- Входящие -->
    <symbol id="icon-inbox" viewBox="0 0 24 24" fill="none">
        <path d="M22 12h-6l-2 3h-4l-2-3H2" stroke="currentColor" stroke-width="2" stroke-linecap="round" stroke-linejoin="round"/>
        <path d="M5.5 5h13L22 12v6a2 2 0 01-2 2H4a2 2 0 01-2-2v-6L5.5 5z" stroke="currentColor" stroke-width="2" stroke-linecap="round" stroke-linejoin="round"/>
    </symbol>

    <!-- Ответить -->
    <symbol id="icon-reply" viewBox="0 0 24 24" fill="none">
        <path d="M9 10l-5 5 5 5" stroke="currentColor" stroke-width="2" stroke-linecap="round" stroke-linejoin="round"/>
        <path d="M4 15h11a6 6 0 006-6V7" stroke="currentColor" stroke-width="2" stroke-linecap="round" stroke-linejoin="round"/>
    </symbol>

    <!-- Эмодзи / реакция -->
    <symbol id="icon-emoji" viewBox="0 0 24 24" fill="none">
        <circle cx="12" cy="12" r="10" stroke="currentColor" stroke-width="2"/>
        <path d="M8 13s1.5 3 4 3 4-3 4-3" stroke="currentColor" stroke-width="2" stroke-linecap="round"/>
        <circle cx="9" cy="9.5" r="1" fill="currentColor"/>
        <circle cx="15" cy="9.5" r="1" fill="currentColor"/>
    </symbol>

    <!-- Три точки (ещё) -->
    <symbol id="icon-more" viewBox="0 0 24 24" fill="none">
        <circle cx="5" cy="12" r="1.5" fill="currentColor"/>
        <circle cx="12" cy="12" r="1.5" fill="currentColor"/>
        <circle cx="19" cy="12" r="1.5" fill="currentColor"/>
    </symbol>

    <!-- Удалить -->
    <symbol id="icon-trash" viewBox="0 0 24 24" fill="none">
        <path d="M3 6h18M8 6V4h8v2M19 6l-1 14H6L5 6" stroke="currentColor" stroke-width="2" stroke-linecap="round" stroke-linejoin="round"/>
        <path d="M10 11v6M14 11v6" stroke="currentColor" stroke-width="2" stroke-linecap="round"/>
    </symbol>

    <!-- Карандаш (изменить) -->
    <symbol id="icon-pencil" viewBox="0 0 24 24" fill="none">
        <path d="M15.232 5.232l3.536 3.536m-2.036-5.036a2.5 2.5 0 113.536 3.536L6.5 21.036H3v-3.572L16.732 3.732z" stroke="currentColor" stroke-width="2" stroke-linecap="round"/>
    </symbol>

    <!-- Жирный (B) -->
    <symbol id="icon-bold" viewBox="0 0 24 24" fill="none">
        <path d="M6 4h8a4 4 0 010 8H6zM6 12h9a4 4 0 010 8H6z" stroke="currentColor" stroke-width="2" stroke-linecap="round" stroke-linejoin="round"/>
    </symbol>

    <!-- @ (упомянуть) -->
    <symbol id="icon-at" viewBox="0 0 24 24" fill="none">
        <circle cx="12" cy="12" r="4" stroke="currentColor" stroke-width="2"/>
        <path d="M16 8v5a3 3 0 006 0v-1a10 10 0 10-3.92 7.94" stroke="currentColor" stroke-width="2" stroke-linecap="round"/>
    </symbol>

    <!-- Отправить -->
    <symbol id="icon-send" viewBox="0 0 24 24" fill="none">
        <path d="M22 2L11 13" stroke="currentColor" stroke-width="2" stroke-linecap="round" stroke-linejoin="round"/>
        <path d="M22 2L15 22l-4-9-9-4 20-7z" stroke="currentColor" stroke-width="2" stroke-linecap="round" stroke-linejoin="round"/>
    </symbol>

    <!-- X (закрыть/убрать) -->
    <symbol id="icon-x" viewBox="0 0 24 24" fill="none">
        <path d="M18 6L6 18M6 6l12 12" stroke="currentColor" stroke-width="2" stroke-linecap="round"/>
    </symbol>

    <!-- Код (вставить блок) -->
    <symbol id="icon-code" viewBox="0 0 24 24" fill="none">
        <path d="M16 18l6-6-6-6M8 6l-6 6 6 6" stroke="currentColor" stroke-width="2" stroke-linecap="round" stroke-linejoin="round"/>
    </symbol>

    <!-- Завершить звонок -->
    <symbol id="icon-phone-off" viewBox="0 0 24 24" fill="none">
        <path d="M10.68 13.31a16 16 0 003.41 2.6l1.27-1.27a2 2 0 012.11-.45 12.84 12.84 0 002.81.7 2 2 0 011.72 2v3a2 2 0 01-2.18 2 19.79 19.79 0 01-8.63-3.07A19.42 19.42 0 013.07 8.63 19.79 19.79 0 01.1 5a2 2 0 012-2.18h3a2 2 0 012 1.72 12.84 12.84 0 00.7 2.81 2 2 0 01-.45 2.11L6.08 10.9a16 16 0 004.6 2.41z" stroke="currentColor" stroke-width="2" stroke-linecap="round" stroke-linejoin="round"/>
        <path d="M23 1L1 23" stroke="currentColor" stroke-width="2" stroke-linecap="round"/>
    </symbol>

    <!-- Камера -->
    <symbol id="icon-camera" viewBox="0 0 24 24" fill="none">
        <path d="M23 7l-7 5 7 5V7z" stroke="currentColor" stroke-width="2" stroke-linecap="round" stroke-linejoin="round"/>
        <rect x="1" y="5" width="15" height="14" rx="2" stroke="currentColor" stroke-width="2"/>
    </symbol>

    <!-- Демонстрация экрана -->
    <symbol id="icon-screen" viewBox="0 0 24 24" fill="none">
        <rect x="2" y="3" width="20" height="14" rx="2" stroke="currentColor" stroke-width="2"/>
        <path d="M8 21h8M12 17v4" stroke="currentColor" stroke-width="2" stroke-linecap="round"/>
        <path d="M9 9l2 2 4-4" stroke="currentColor" stroke-width="2" stroke-linecap="round" stroke-linejoin="round"/>
    </symbol>

</svg>