<svg xmlns="http://www.w3.org/2000/svg" style="display: none;">

    <!-- Голосовой канал -->
    <symbol id="icon-voice" viewBox="0 0 24 24" fill="none">
        <path d="M19 11a7 7 0 01-7 7m0 0a7 7 0 01-7-7m7 7v4m0 0H8m4 0h4m-4-8a3 3 0 01-3-3V5a3 3 0 116 0v6a3 3 0 01-3 3z" stroke="currentColor" stroke-width="2" stroke-linecap="round" stroke-linejoin="round"/>
    </symbol>

    <!-- Микрофон выключен -->
    <symbol id="icon-mic-off" viewBox="0 0 24 24" fill="none">
        <path d="M19 11a7 7 0 01-7 7m0 0a7 7 0 01-7-7m7 7v4m0 0H8m4 0h4m-4-8a3 3 0 01-3-3V5a3 3 0 116 0v6a3 3 0 01-3 3z" stroke="currentColor" stroke-width="2" stroke-linecap="round" stroke-linejoin="round"/>
        <path d="M3 3l18 18" stroke="currentColor" stroke-width="2" stroke-linecap="round"/>
    </symbol>

    <!-- Микрофон включен -->
    <symbol id="icon-mic" viewBox="0 0 24 24" fill="none">
        <path d="M19 11a7 7 0 01-7 7m0 0a7 7 0 01-7-7m7 7v4m0 0H8m4 0h4m-4-8a3 3 0 01-3-3V5a3 3 0 116 0v6a3 3 0 01-3 3z" stroke="currentColor" stroke-width="2" stroke-linecap="round" stroke-linejoin="round"/>
    </symbol>

    <!-- Наушники (звук включен) -->
    <symbol id="icon-headphones" viewBox="0 0 24 24" fill="none">
        <path d="M3 12h2a2 2 0 012 2v4a2 2 0 01-2 2H3v-8zm18 0h-2a2 2 0 00-2 2v4a2 2 0 002 2h2v-8z" stroke="currentColor" stroke-width="2"/>
        <path d="M12 2a10 10 0 00-10 10" stroke="currentColor" stroke-width="2"/>
        <path d="M22 12a10 10 0 00-10-10" stroke="currentColor" stroke-width="2"/>
    </symbol>

    <!-- Наушники выключены (глухота) -->
    <symbol id="icon-headphones-off" viewBox="0 0 24 24" fill="none">
        <path d="M3 12h2a2 2 0 012 2v4a2 2 0 01-2 2H3v-8zm18 0h-2a2 2 0 00-2 2v4a2 2 0 002 2h2v-8z" stroke="currentColor" stroke-width="2"/>
        <path d="M12 2a10 10 0 00-10 10" stroke="currentColor" stroke-width="2"/>
        <path d="M22 12a10 10 0 00-10-10" stroke="currentColor" stroke-width="2"/>
        <path d="M3 3l18 18" stroke="currentColor" stroke-width="2" stroke-linecap="round"/>
    </symbol>

    <!-- Текстовый канал (хеш) -->
    <symbol id="icon-hash" viewBox="0 0 24 24" fill="none">
        <path d="M7 20L10 4M14 20L17 4M4 8H20M4 16H20" stroke="currentColor" stroke-width="2" stroke-linecap="round"/>
    </symbol>

    <!-- Сервер по умолчанию -->
    <symbol id="icon-server-default" viewBox="0 0 24 24" fill="none">
        <path d="M4 7h16M4 12h16M4 17h16M7 4h10a2 2 0 012 2v12a2 2 0 01-2 2H7a2 2 0 01-2-2V6a2 2 0 012-2z" stroke="currentColor" stroke-width="2" stroke-linecap="round"/>
    </symbol>

    <!-- Сервер Game -->
    <symbol id="icon-server-game" viewBox="0 0 24 24" fill="none">
        <path d="M12 2a10 10 0 00-10 10v6a2 2 0 002 2h16a2 2 0 002-2v-6a10 10 0 00-10-10z" stroke="currentColor" stroke-width="2"/>
        <circle cx="9" cy="12" r="1" fill="currentColor"/>
        <circle cx="15" cy="12" r="1" fill="currentColor"/>
        <path d="M7 15h10" stroke="currentColor" stroke-width="2" stroke-linecap="round"/>
    </symbol>

    <!-- Сервер Dev -->
    <symbol id="icon-server-dev" viewBox="0 0 24 24" fill="none">
        <path d="M4 5h16a1 1 0 011 1v12a1 1 0 01-1 1H4a1 1 0 01-1-1V6a1 1 0 011-1z" stroke="currentColor" stroke-width="2"/>
        <path d="M8 9l4 3-4 3M16 9l-4 3 4 3" stroke="currentColor" stroke-width="2" stroke-linecap="round"/>
    </symbol>

    <!-- Сервер Music -->
    <symbol id="icon-server-music" viewBox="0 0 24 24" fill="none">
        <path d="M9 18V5l12-2v13" stroke="currentColor" stroke-width="2" stroke-linecap="round"/>
        <circle cx="6" cy="18" r="3" stroke="currentColor" stroke-width="2"/>
        <circle cx="18" cy="16" r="3" stroke="currentColor" stroke-width="2"/>
    </symbol>

    <!-- Сервер Study -->
    <symbol id="icon-server-study" viewBox="0 0 24 24" fill="none">
        <path d="M4 6h16a2 2 0 012 2v8a2 2 0 01-2 2H4a2 2 0 01-2-2V8a2 2 0 012-2z" stroke="currentColor" stroke-width="2"/>
        <path d="M4 6l8 5 8-5" stroke="currentColor" stroke-width="2" stroke-linecap="round"/>
    </symbol>

    <!-- Сервер Friends -->
    <symbol id="icon-server-friends" viewBox="0 0 24 24" fill="none">
        <path d="M17 21v-2a4 4 0 00-4-4H5a4 4 0 00-4 4v2" stroke="currentColor" stroke-width="2"/>
        <circle cx="9" cy="7" r="4" stroke="currentColor" stroke-width="2"/>
        <path d="M23 21v-2a4 4 0 00-3-3.87" stroke="currentColor" stroke-width="2"/>
        <path d="M16 3.13a4 4 0 010 7.75" stroke="currentColor" stroke-width="2"/>
    </symbol>

    <!-- Сервер Settings -->
    <symbol id="icon-server-settings" viewBox="0 0 24 24" fill="none">
        <circle cx="12" cy="12" r="3" stroke="currentColor" stroke-width="2"/>
        <path d="M19.4 15a1.65 1.65 0 00.33 1.82l.06.06a2 2 0 010 2.83 2 2 0 01-2.83 0l-.06-.06a1.65 1.65 0 00-1.82-.33 1.65 1.65 0 00-1 1.51V21a2 2 0 01-2 2 2 2 0 01-2-2v-.09A1.65 1.65 0 009 19.4a1.65 1.65 0 00-1.82.33l-.06.06a2 2 0 01-2.83 0 2 2 0 010-2.83l.06-.06a1.65 1.65 0 00.33-1.82 1.65 1.65 0 00-1.51-1H3a2 2 0 01-2-2 2 2 0 012-2h.09A1.65 1.65 0 004.6 9a1.65 1.65 0 00-.33-1.82l-.06-.06a2 2 0 010-2.83 2 2 0 012.83 0l.06.06a1.65 1.65 0 001.82.33H9a1.65 1.65 0 001-1.51V3a2 2 0 012-2 2 2 0 012 2v.09a1.65 1.65 0 001 1.51 1.65 1.65 0 001.82-.33l.06-.06a2 2 0 012.83 0 2 2 0 010 2.83l-.06.06a1.65 1.65 0 00-.33 1.82V9a1.65 1.65 0 001.51 1H21a2 2 0 012 2 2 2 0 01-2 2h-.09a1.65 1.65 0 00-1.51 1z" stroke="currentColor" stroke-width="2"/>
    </symbol>

    <!-- Плюс -->
    <symbol id="icon-plus" viewBox="0 0 24 24" fill="none">
        <path d="M12 4v16M4 12h16" stroke="currentColor" stroke-width="2" stroke-linecap="round"/>
    </symbol>

    <!-- Добавить сервер -->
    <symbol id="icon-server-add" viewBox="0 0 24 24" fill="none">
        <path d="M12 4v16M4 12h16" stroke="currentColor" stroke-width="2" stroke-linecap="round"/>
    </symbol>

    <!-- Выход -->
    <symbol id="icon-logout" viewBox="0 0 24 24" fill="none">
        <path d="M15 3h4a2 2 0 012 2v14a2 2 0 01-2 2h-4M10 17l5-5-5-5M15 12H3" stroke="currentColor" stroke-width="2"/>
    </symbol>

    <!-- Редактировать -->
    <symbol id="icon-edit" viewBox="0 0 24 24" fill="none">
        <path d="M15.232 5.232l3.536 3.536m-2.036-5.036a2.5 2.5 0 113.536 3.536L6.5 21.036H3v-3.572L16.732 3.732z" stroke="currentColor" stroke-width="2" stroke-linecap="round"/>
    </symbol>

    <!-- Стрелка влево -->
    <symbol id="icon-arrow-left" viewBox="0 0 24 24" fill="none">
        <path d="M15 18l-6-6 6-6" stroke="currentColor" stroke-width="2" stroke-linecap="round" stroke-linejoin="round"/>
    </symbol>

    <!-- Закрыть -->
    <symbol id="icon-close" viewBox="0 0 24 24" fill="none">
        <path d="M6 18L18 6M6 6l12 12" stroke="currentColor" stroke-width="2" stroke-linecap="round"/>
    </symbol>

    <!-- Иконка стрелки вправо -->
    <symbol id="icon-arrow-right" viewBox="0 0 24 24" fill="none">
        <path d="M9 18l6-6-6-6" stroke="currentColor" stroke-width="2" stroke-linecap="round" stroke-linejoin="round"/>
    </symbol>

</svg>